# Blender v3.0.0 OBJ File: ''
# www.blender.org
mtllib dummy_middle.mtl
o Cylinder.003_Cylinder.004
v 0.000000 -0.063391 -0.877427
v 0.000000 0.063391 -0.877427
v 0.759874 -0.063391 -0.438713
v 0.759874 0.063391 -0.438713
v 0.759874 -0.063391 0.438713
v 0.759874 0.063391 0.438713
v -0.000000 -0.063391 0.877427
v -0.000000 0.063391 0.877427
v -0.759874 -0.063391 0.438713
v -0.759874 0.063391 0.438713
v -0.759874 -0.063391 -0.438713
v -0.759874 0.063391 -0.438713
vt 0.457846 0.370000
vt 0.250000 0.490000
vt 0.042154 0.370000
vt 0.042154 0.130000
vt 0.250000 0.010000
vt 0.457846 0.130000
vt 0.750000 0.490000
vt 0.957846 0.370000
vt 0.957846 0.130000
vt 0.750000 0.010000
vt 0.542154 0.130000
vt 0.542154 0.370000
vn 0.0000 1.0000 0.0000
vn 0.0000 -1.0000 0.0000
usemtl None
s off
f 4/1/1 2/2/1 12/3/1 10/4/1 8/5/1 6/6/1
f 1/7/2 3/8/2 5/9/2 7/10/2 9/11/2 11/12/2
